# xmcd
#
# Track frame offsets: 
#        150
#        19982
#        29936
#        46783
#        68412
#        73394
#        91635
#        114157
#        136513
#        160532
#        182026
#        204011
#        207780
#        230061
#        251508
#        275982
#
# Disc length: 4021 seconds
#
# Revision: 1
# Processed by: cddbd v1.5.1PL0 Copyright (c) Steve Scherf et al.
# Submitted via: ExactAudioCopy v0.95a5
#
DISCID=d70fb310
DTITLE=Mobb Deep - The infamous
DYEAR=1995
DGENRE=fucking hip hop!!
TTITLE0=The Start Of Your Ending (41st side)
TTITLE1=[The Infamous Prelude]
TTITLE2=Survival Of The Fittest
TTITLE3=Eye For An Eye (your beef is mine)
TTITLE4=[Just Step Prelude]
TTITLE5=Give Up The Goods (just step)
TTITLE6=Temperature's Rising
TTITLE7=Up North Trip
TTITLE8=Trife Life
TTITLE9=Q.U. - hectic
TTITLE10=Right Back At You
TTITLE11=[The Grave Prelude]
TTITLE12=Cradle To The Grave
TTITLE13=Drink Away The Pain (situations)
TTITLE14=Shook Ones Part II
TTITLE15=Party Over
EXTD=
EXTT0=
EXTT1=
EXTT2=
EXTT3=
EXTT4=
EXTT5=
EXTT6=
EXTT7=
EXTT8=
EXTT9=
EXTT10=
EXTT11=
EXTT12=
EXTT13=
EXTT14=
EXTT15=
PLAYORDER=
